<svg width="31" height="29" viewBox="0 0 31 29" fill="none" xmlns="http://www.w3.org/2000/svg">
<path d="M10.4144 9.92318C10.5796 6.3595 12.6411 3.30991 15.0856 0.426392C15.2564 0.213196 15.4267 0 15.4267 0C15.4267 0 15.6767 0.264512 15.8381 0.440854C21.4694 6.58855 21.2217 13.0409 15.8479 19.1634C15.5969 19.44 15.4239 19.6089 15.4267 19.6108C15.4295 19.6126 15.0768 19.3323 14.8799 19.1536C12.2609 16.7763 10.3715 14.0355 10.4144 9.92318Z" fill="#FDF9F9"/>
<path d="M20.334 17.7387C22.9002 15.2601 26.4924 14.4572 30.2492 14.0383C30.5193 14.0005 30.7899 13.9623 30.7899 13.9623C30.7899 13.9623 30.7904 14.3266 30.7866 14.5655C30.6625 22.9016 26.0539 27.424 17.9431 28.1886C17.5708 28.2175 17.3291 28.2217 17.3296 28.2245C17.3305 28.2278 17.2662 27.7818 17.2456 27.5168C16.9727 23.9904 17.4803 20.7001 20.334 17.7387Z" fill="#FDF9F9"/>
<path d="M10.456 17.7387C7.88968 15.2601 4.29753 14.4572 0.540706 14.0383C0.270596 14.0005 1.8625e-05 13.9623 1.8625e-05 13.9623C1.8625e-05 13.9623 -0.000447546 14.3266 0.00328455 14.5655C0.127377 22.9016 4.73605 27.424 12.8468 28.1886C13.2191 28.2175 13.4608 28.2217 13.4603 28.2245C13.4594 28.2278 13.5237 27.7818 13.5443 27.5168C13.8172 23.9904 13.3096 20.7001 10.456 17.7387Z" fill="#FDF9F9"/>
</svg>
